<svg xmlns="http://www.w3.org/2000/svg" xmlns:xlink="http://www.w3.org/1999/xlink" width="24.9" height="24.25" viewBox="0 0 24.9 24.25"><defs><style>.cls-1{fill:url(#linear-gradient);}.cls-2{fill:url(#linear-gradient-2);}.cls-3{fill:#fff4eb;}.cls-4{fill:none;}</style><linearGradient id="linear-gradient" x1="8.77" y1="20.51" x2="10.25" y2="20.51" gradientUnits="userSpaceOnUse"><stop offset="0" stop-color="#7eab5d"/><stop offset="1" stop-color="#215c2e"/></linearGradient><linearGradient id="linear-gradient-2" x1="12.54" y1="3.25" x2="12.45" y2="21.47" xlink:href="#linear-gradient"/></defs><g id="Layer_2" data-name="Layer 2"><g id="Layer_1-2" data-name="Layer 1"><path class="cls-1" d="M8.77,20.1a1.41,1.41,0,0,0,.48.59,1.14,1.14,0,0,0,.72.22,2.48,2.48,0,0,0,.27,0v0a.76.76,0,0,0,0-.15A1.55,1.55,0,0,1,8.77,20.1Z"/><path class="cls-2" d="M24.6,20.46,14.89,1.78l0-.09-.18-.34a2.51,2.51,0,0,0-.81-.92.05.05,0,0,0,0,0h0l-.2-.11-.1,0A2.55,2.55,0,0,0,11.7.11l-.09,0a2.28,2.28,0,0,0-.71.4l-.05,0h0a.71.71,0,0,0-.09.07l0,0a2,2,0,0,0-.24.26l-.06.09a3,3,0,0,0-.19.3l-.06.13h0l-9.87,19A2.6,2.6,0,0,0,2.6,24.25H8.28s1.63-.14,2-3.12A1.2,1.2,0,0,1,9.07,21a1.88,1.88,0,0,1-.68-1.15,2.17,2.17,0,0,1,0-.25c0-.06,0-.1.08-.08a2.62,2.62,0,0,0,.88.15,2,2,0,0,1,.59.14.76.76,0,0,1,.4.56h0c0-.12,0-.25,0-.38a5.2,5.2,0,0,1,.57-2.46,4.06,4.06,0,0,1,.34-1.37c.52-1.14,2.08-2.45,4.67-2s.42.26-.11,2.2a3,3,0,0,1-4.14,2.16,4.86,4.86,0,0,1,2.28-3.29,3.3,3.3,0,0,0-.51.28,7.2,7.2,0,0,0-.81.65A4.17,4.17,0,0,0,11,19.28a10.46,10.46,0,0,0,.28,2.43,1.24,1.24,0,0,1,1.09-.8,1.87,1.87,0,0,1,1.23.47l.18.17s0,.09,0,.11a2.83,2.83,0,0,0-.76.42,2.11,2.11,0,0,1-.55.25.73.73,0,0,1-.64-.18c-.12-.09-.22-.19-.33-.29a1.58,1.58,0,0,1,1.59-.5,1.28,1.28,0,0,0-.72-.16,1.18,1.18,0,0,0-.7.26c-.12.11-.24.25-.34.36a4.4,4.4,0,0,0,1.46,2.43h9.5A2.59,2.59,0,0,0,24.6,20.46Zm-14-4c-.14.25-.32.48-.49.73a3.2,3.2,0,0,1-1.41-3.09,2.73,2.73,0,0,0-.14,1.5,2.29,2.29,0,0,0,.69,1.34c.37.32.8.58,1.15.83A2.7,2.7,0,0,1,8,15.57,3.73,3.73,0,0,1,8.63,13c.09-.14.2-.28.29-.41s.18-.12.23,0a5.73,5.73,0,0,0,1,1.44,4.68,4.68,0,0,1,.64,1.05A1.5,1.5,0,0,1,10.61,16.42Zm4.5-4.87a2.93,2.93,0,0,1-3.63,2.7,4.5,4.5,0,0,1,2.25-3.86A3.88,3.88,0,0,0,11,15a5.48,5.48,0,0,1-.3-3,4,4,0,0,1,4.16-2.6C17.41,9.51,15.3,9.6,15.11,11.55Z"/><circle class="cls-3" cx="13.67" cy="7.14" r="0.04"/><circle class="cls-3" cx="11.86" cy="7.75" r="0.05"/><circle class="cls-3" cx="12.27" cy="7.57" r="0.04"/><circle class="cls-3" cx="13.76" cy="6.89" r="0.05"/><circle class="cls-3" cx="12.58" cy="7.33" r="0.03"/><circle class="cls-3" cx="13.35" cy="6.97" r="0.05"/><circle class="cls-3" cx="13.11" cy="7.02" r="0.04"/><circle class="cls-3" cx="12.53" cy="7.21" r="0.06"/><circle class="cls-3" cx="13.45" cy="6.84" r="0.05"/><circle class="cls-3" cx="11.55" cy="7.57" r="0.04"/><circle class="cls-3" cx="13.5" cy="6.72" r="0.04"/><circle class="cls-3" cx="13.17" cy="6.73" r="0.05"/><circle class="cls-3" cx="11.37" cy="7.32" r="0.05"/><circle class="cls-3" cx="13.29" cy="6.5" r="0.04"/><circle class="cls-3" cx="12.81" cy="6.62" r="0.04"/><circle class="cls-3" cx="11.82" cy="6.95" r="0.04"/><circle class="cls-3" cx="12.42" cy="6.58" r="0.06"/><circle class="cls-3" cx="11.91" cy="6.77" r="0.05"/><circle class="cls-3" cx="11.98" cy="6.64" r="0.04"/><circle class="cls-3" cx="13" cy="6.17" r="0.04"/><circle class="cls-3" cx="11.7" cy="6.63" r="0.05"/><circle class="cls-3" cx="12.34" cy="6.27" r="0.05"/><circle class="cls-3" cx="11.89" cy="6.36" r="0.05"/><circle class="cls-3" cx="11.2" cy="6.53" r="0.05"/><circle class="cls-3" cx="11.41" cy="6.35" r="0.03"/><circle class="cls-3" cx="12.68" cy="5.85" r="0.05"/><circle class="cls-3" cx="12.25" cy="5.93" r="0.03"/><circle class="cls-3" cx="11" cy="6.35" r="0.06"/><circle class="cls-3" cx="12.63" cy="5.68" r="0.04"/><circle class="cls-3" cx="12.16" cy="5.82" r="0.05"/><circle class="cls-3" cx="11.45" cy="6.07" r="0.06"/><circle class="cls-3" cx="12.06" cy="5.74" r="0.05"/><circle class="cls-3" cx="12.83" cy="5.36" r="0.05"/><circle class="cls-3" cx="12.12" cy="5.56" r="0.04"/><circle class="cls-3" cx="11.94" cy="5.58" r="0.04"/><circle class="cls-3" cx="12.45" cy="5.32" r="0.06"/><circle class="cls-3" cx="11.81" cy="5.56" r="0.04"/><circle class="cls-3" cx="12.39" cy="5.27" r="0.06"/><circle class="cls-3" cx="11.91" cy="5.38" r="0.05"/><circle class="cls-3" cx="11.15" cy="5.55" r="0.04"/><circle class="cls-3" cx="12.98" cy="4.74" r="0.04"/><circle class="cls-3" cx="12.41" cy="4.9" r="0.05"/><circle class="cls-3" cx="11.66" cy="5.07" r="0.06"/><circle class="cls-3" cx="12.28" cy="4.71" r="0.04"/><circle class="cls-3" cx="12.06" cy="4.74" r="0.04"/><circle class="cls-3" cx="11.51" cy="4.84" r="0.04"/><circle class="cls-3" cx="12.58" cy="4.32" r="0.05"/><circle class="cls-3" cx="12.47" cy="4.31" r="0.04"/><circle class="cls-3" cx="11.8" cy="4.49" r="0.03"/><circle class="cls-3" cx="11.67" cy="4.45" r="0.06"/><circle class="cls-3" cx="11.46" cy="4.5" r="0.04"/><circle class="cls-3" cx="11.22" cy="4.5" r="0.04"/><circle class="cls-3" cx="10.78" cy="4.55" r="0.06"/><circle class="cls-3" cx="11.02" cy="4.4" r="0.05"/><circle class="cls-3" cx="12.7" cy="3.69" r="0.06"/><circle class="cls-3" cx="12.09" cy="3.86" r="0.05"/><circle class="cls-3" cx="12.26" cy="3.78" r="0.05"/><circle class="cls-3" cx="10.68" cy="4.3" r="0.05"/><circle class="cls-3" cx="10.54" cy="4.35" r="0.05"/><circle class="cls-3" cx="10.88" cy="4.17" r="0.05"/><circle class="cls-3" cx="12.01" cy="3.73" r="0.05"/><circle class="cls-3" cx="10.78" cy="4.09" r="0.06"/><circle class="cls-3" cx="11.94" cy="3.56" r="0.04"/><circle class="cls-3" cx="10.25" cy="4.12" r="0.04"/><circle class="cls-3" cx="10.61" cy="3.87" r="0.05"/><circle class="cls-3" cx="11.35" cy="3.52" r="0.06"/><circle class="cls-3" cx="11.41" cy="3.4" r="0.05"/><circle class="cls-3" cx="10.65" cy="3.64" r="0.04"/><circle class="cls-3" cx="12.15" cy="3" r="0.05"/><circle class="cls-3" cx="12.06" cy="3.03" r="0.05"/><circle class="cls-3" cx="10.66" cy="3.51" r="0.05"/><circle class="cls-3" cx="10.38" cy="3.52" r="0.06"/><circle class="cls-3" cx="11.18" cy="3.11" r="0.05"/><circle class="cls-3" cx="9.89" cy="3.59" r="0.05"/><circle class="cls-3" cx="10.11" cy="3.4" r="0.04"/><circle class="cls-3" cx="9.97" cy="3.39" r="0.06"/><circle class="cls-3" cx="11.08" cy="2.89" r="0.06"/><circle class="cls-3" cx="11.95" cy="2.53" r="0.04"/><circle class="cls-3" cx="10.36" cy="3.09" r="0.04"/><circle class="cls-3" cx="10.73" cy="2.9" r="0.04"/><circle class="cls-3" cx="10.42" cy="2.89" r="0.05"/><circle class="cls-3" cx="12" cy="2.18" r="0.04"/><circle class="cls-3" cx="11.8" cy="2.25" r="0.05"/><circle class="cls-3" cx="9.97" cy="2.94" r="0.06"/><circle class="cls-3" cx="10.82" cy="2.58" r="0.06"/><circle class="cls-3" cx="10.11" cy="2.73" r="0.04"/><circle class="cls-3" cx="10.95" cy="2.37" r="0.05"/><circle class="cls-3" cx="10.64" cy="2.41" r="0.05"/><circle class="cls-3" cx="11.94" cy="1.81" r="0.04"/><circle class="cls-3" cx="11.22" cy="2.08" r="0.05"/><circle class="cls-3" cx="10.42" cy="2.31" r="0.04"/><circle class="cls-3" cx="11.03" cy="2.06" r="0.05"/><circle class="cls-3" cx="10.07" cy="2.4" r="0.04"/><circle class="cls-3" cx="10.5" cy="2.14" r="0.04"/><circle class="cls-3" cx="11.58" cy="1.63" r="0.05"/><circle class="cls-3" cx="11.89" cy="1.47" r="0.04"/><circle class="cls-3" cx="10.57" cy="1.96" r="0.06"/><circle class="cls-3" cx="10.65" cy="1.87" r="0.05"/><circle class="cls-3" cx="11.28" cy="1.59" r="0.04"/><circle class="cls-3" cx="10.12" cy="1.97" r="0.06"/><circle class="cls-3" cx="10.87" cy="1.58" r="0.05"/><circle class="cls-3" cx="11.13" cy="1.32" r="0.04"/><circle class="cls-3" cx="10.75" cy="1.25" r="0.05"/><circle class="cls-3" cx="10.34" cy="1.34" r="0.05"/><circle class="cls-3" cx="11.32" cy="0.85" r="0.04"/><circle class="cls-3" cx="10.96" cy="0.58" r="0.04"/><circle class="cls-3" cx="11.38" cy="0.31" r="0.04"/><circle class="cls-3" cx="10.17" cy="1.43" r="0.05"/><circle class="cls-3" cx="10.31" cy="1.33" r="0.04"/><circle class="cls-3" cx="10.41" cy="1.31" r="0.06"/><circle class="cls-3" cx="10.45" cy="1.07" r="0.05"/><circle class="cls-3" cx="10.48" cy="1.27" r="0.05"/><circle class="cls-3" cx="10.75" cy="0.71" r="0.05"/><circle class="cls-3" cx="10.93" cy="0.97" r="0.06"/><circle class="cls-3" cx="11.23" cy="1.04" r="0.04"/><circle class="cls-3" cx="11.31" cy="0.35" r="0.05"/><circle class="cls-3" cx="11.31" cy="1.62" r="0.05"/><circle class="cls-3" cx="11.56" cy="1.29" r="0.04"/><circle class="cls-3" cx="11.62" cy="1.75" r="0.05"/><circle class="cls-3" cx="11.63" cy="1.55" r="0.04"/><circle class="cls-3" cx="11.64" cy="1.45" r="0.06"/><circle class="cls-3" cx="11.65" cy="0.14" r="0.05"/><circle class="cls-3" cx="11.76" cy="1.18" r="0.06"/><circle class="cls-3" cx="11.77" cy="1.81" r="0.04"/><circle class="cls-3" cx="12.01" cy="0.78" r="0.05"/><circle class="cls-3" cx="12.1" cy="0.09" r="0.03"/><circle class="cls-3" cx="12.14" cy="1.35" r="0.06"/><circle class="cls-3" cx="12.18" cy="0.98" r="0.04"/><circle class="cls-3" cx="12.19" cy="1.8" r="0.06"/><circle class="cls-3" cx="12.23" cy="1.25" r="0.06"/><circle class="cls-3" cx="12.46" cy="0.83" r="0.04"/><circle class="cls-3" cx="12.52" cy="1.84" r="0.05"/><circle class="cls-3" cx="12.57" cy="0.26" r="0.05"/><circle class="cls-3" cx="12.57" cy="1.8" r="0.04"/><circle class="cls-3" cx="12.65" cy="1.89" r="0.05"/><circle class="cls-3" cx="12.73" cy="1.94" r="0.05"/><circle class="cls-3" cx="12.79" cy="1.26" r="0.06"/><circle class="cls-3" cx="12.79" cy="1.07" r="0.05"/><circle class="cls-3" cx="12.88" cy="1.04" r="0.05"/><circle class="cls-3" cx="12.99" cy="1.91" r="0.05"/><circle class="cls-3" cx="13.18" cy="0.65" r="0.05"/><circle class="cls-3" cx="13.26" cy="1.58" r="0.05"/><circle class="cls-3" cx="13.31" cy="0.48" r="0.04"/><circle class="cls-3" cx="13.53" cy="1.43" r="0.04"/><circle class="cls-3" cx="13.62" cy="0.86" r="0.06"/><circle class="cls-3" cx="13.66" cy="0.99" r="0.06"/><circle class="cls-3" cx="13.75" cy="1.43" r="0.05"/><circle class="cls-3" cx="13.85" cy="0.39" r="0.04"/><circle class="cls-3" cx="13.94" cy="1.75" r="0.04"/><circle class="cls-3" cx="14.01" cy="0.68" r="0.06"/><circle class="cls-3" cx="14.11" cy="0.96" r="0.04"/><circle class="cls-3" cx="14.28" cy="1.3" r="0.04"/><circle class="cls-3" cx="14.89" cy="1.72" r="0.06"/><circle class="cls-3" cx="13.56" cy="0.26" r="0.06"/><circle class="cls-3" cx="13.83" cy="0.82" r="0.06"/><circle class="cls-3" cx="13.96" cy="0.88" r="0.04"/><circle class="cls-3" cx="14" cy="0.97" r="0.05"/><circle class="cls-3" cx="13.93" cy="1.01" r="0.04"/><circle class="cls-3" cx="13.85" cy="1.05" r="0.04"/><circle class="cls-3" cx="14.66" cy="1.48" r="0.05"/><circle class="cls-3" cx="14.45" cy="1.52" r="0.04"/><circle class="cls-3" cx="14" cy="1.45" r="0.04"/><circle class="cls-3" cx="13.72" cy="1.34" r="0.05"/><circle class="cls-3" cx="14.85" cy="1.84" r="0.04"/><circle class="cls-3" cx="13.07" cy="1.16" r="0.03"/><circle class="cls-3" cx="13.23" cy="1.31" r="0.03"/><circle class="cls-3" cx="13.87" cy="1.57" r="0.05"/><circle class="cls-3" cx="14.68" cy="1.99" r="0.05"/><circle class="cls-3" cx="14.26" cy="1.95" r="0.04"/><circle class="cls-3" cx="14.88" cy="2.22" r="0.04"/><circle class="cls-3" cx="15" cy="2.36" r="0.06"/><circle class="cls-3" cx="14.19" cy="2.06" r="0.04"/><circle class="cls-3" cx="13.46" cy="1.87" r="0.04"/><circle class="cls-3" cx="12.95" cy="1.8" r="0.05"/><circle class="cls-3" cx="14.25" cy="2.31" r="0.05"/><circle class="cls-3" cx="14.96" cy="2.62" r="0.06"/><circle class="cls-3" cx="14.4" cy="2.52" r="0.05"/><circle class="cls-3" cx="14.2" cy="2.52" r="0.06"/><circle class="cls-3" cx="13.64" cy="2.43" r="0.05"/><circle class="cls-3" cx="13.31" cy="2.4" r="0.05"/><circle class="cls-3" cx="13.29" cy="2.48" r="0.06"/><circle class="cls-3" cx="14.93" cy="3.24" r="0.03"/><circle class="cls-3" cx="12.45" cy="2.3" r="0.04"/><circle class="cls-3" cx="13.69" cy="2.89" r="0.05"/><circle class="cls-3" cx="13.68" cy="2.96" r="0.05"/><circle class="cls-3" cx="13.79" cy="3.04" r="0.05"/><circle class="cls-3" cx="13.77" cy="3.13" r="0.05"/><circle class="cls-3" cx="12.81" cy="2.81" r="0.05"/><circle class="cls-3" cx="14.56" cy="3.63" r="0.04"/><circle class="cls-3" cx="14.52" cy="3.73" r="0.04"/><circle class="cls-3" cx="12.75" cy="3.13" r="0.04"/><circle class="cls-3" cx="13.57" cy="3.48" r="0.05"/><circle class="cls-3" cx="13.12" cy="3.43" r="0.06"/><circle class="cls-3" cx="12.3" cy="3.23" r="0.05"/><circle class="cls-3" cx="13.69" cy="3.89" r="0.04"/><circle class="cls-3" cx="13.19" cy="3.73" r="0.04"/><circle class="cls-3" cx="12.15" cy="3.44" r="0.05"/><circle class="cls-3" cx="12.6" cy="3.68" r="0.04"/><circle class="cls-3" cx="12.95" cy="3.92" r="0.05"/><circle class="cls-3" cx="13.15" cy="4.01" r="0.05"/><circle class="cls-3" cx="12.66" cy="3.95" r="0.04"/><circle class="cls-3" cx="13.94" cy="4.5" r="0.06"/><circle class="cls-3" cx="14.34" cy="4.73" r="0.04"/><circle class="cls-3" cx="13.71" cy="4.54" r="0.05"/><circle class="cls-3" cx="12.76" cy="4.2" r="0.05"/><circle class="cls-3" cx="12.48" cy="4.2" r="0.05"/><circle class="cls-3" cx="13.32" cy="4.64" r="0.04"/><circle class="cls-3" cx="13.95" cy="4.96" r="0.06"/><circle class="cls-3" cx="12.39" cy="4.48" r="0.05"/><circle class="cls-3" cx="11.61" cy="4.21" r="0.05"/><circle class="cls-3" cx="13.81" cy="5.09" r="0.06"/><circle class="cls-3" cx="12.02" cy="4.39" r="0.04"/><circle class="cls-3" cx="12.07" cy="4.51" r="0.06"/><circle class="cls-3" cx="12.41" cy="4.75" r="0.06"/><circle class="cls-3" cx="11.87" cy="4.66" r="0.06"/><circle class="cls-3" cx="12.74" cy="5.1" r="0.05"/><circle class="cls-3" cx="11.85" cy="4.79" r="0.05"/><circle class="cls-3" cx="12.7" cy="5.22" r="0.04"/><circle class="cls-3" cx="13.63" cy="5.62" r="0.06"/><circle class="cls-3" cx="11.54" cy="4.86" r="0.05"/><circle class="cls-3" cx="12.52" cy="5.35" r="0.04"/><circle class="cls-3" cx="13.31" cy="5.69" r="0.06"/><circle class="cls-3" cx="11.83" cy="5.17" r="0.03"/><circle class="cls-3" cx="13.74" cy="5.99" r="0.04"/><circle class="cls-3" cx="12.5" cy="5.5" r="0.05"/><circle class="cls-3" cx="12.08" cy="5.43" r="0.04"/><circle class="cls-3" cx="12.59" cy="5.63" r="0.04"/><circle class="cls-3" cx="12.25" cy="5.55" r="0.05"/><circle class="cls-3" cx="12.52" cy="5.74" r="0.06"/><circle class="cls-3" cx="12.68" cy="5.84" r="0.05"/><circle class="cls-3" cx="11.53" cy="5.44" r="0.04"/><circle class="cls-3" cx="12.04" cy="5.7" r="0.04"/><circle class="cls-3" cx="11.14" cy="5.39" r="0.04"/><circle class="cls-3" cx="12.1" cy="5.82" r="0.06"/><circle class="cls-3" cx="13.33" cy="6.43" r="0.05"/><circle class="cls-3" cx="11.58" cy="5.77" r="0.04"/><circle class="cls-3" cx="13.05" cy="6.44" r="0.05"/><circle class="cls-3" cx="12.59" cy="6.33" r="0.04"/><circle class="cls-3" cx="11.6" cy="6.02" r="0.04"/><circle class="cls-3" cx="11.66" cy="6.13" r="0.04"/><circle class="cls-3" cx="12.11" cy="6.37" r="0.05"/><circle class="cls-3" cx="11.26" cy="6.14" r="0.05"/><circle class="cls-3" cx="13.35" cy="7.01" r="0.05"/><circle class="cls-3" cx="11.49" cy="6.38" r="0.04"/><circle class="cls-3" cx="12.55" cy="6.92" r="0.06"/><circle class="cls-3" cx="13.04" cy="7.23" r="0.06"/><circle class="cls-3" cx="12.47" cy="7.04" r="0.04"/><circle class="cls-3" cx="10.76" cy="6.45" r="0.05"/><circle class="cls-3" cx="10.78" cy="6.5" r="0.06"/><circle class="cls-3" cx="11.8" cy="6.95" r="0.04"/><circle class="cls-3" cx="12.12" cy="7.17" r="0.04"/><circle class="cls-3" cx="13.02" cy="7.64" r="0.05"/><circle class="cls-3" cx="10.78" cy="6.88" r="0.05"/><circle class="cls-3" cx="13.09" cy="7.81" r="0.05"/><circle class="cls-3" cx="12.22" cy="7.48" r="0.05"/><circle class="cls-3" cx="10.57" cy="6.86" r="0.05"/><circle class="cls-3" cx="10.61" cy="7" r="0.04"/><path class="cls-4" d="M22.3,24.25H2.6A2.6,2.6,0,0,1,.29,20.46l9.87-19h0l.06-.13a3,3,0,0,1,.19-.3L10.47,1A2,2,0,0,1,10.71.7l0,0a.71.71,0,0,1,.09-.07h0l.05,0a2.28,2.28,0,0,1,.71-.4l.09,0a2.55,2.55,0,0,1,1.82.13l.1,0,.2.11h0a.05.05,0,0,1,0,0,2.51,2.51,0,0,1,.81.92l.18.34,0,.09L24.6,20.46A2.59,2.59,0,0,1,22.3,24.25Z"/></g></g></svg>