<svg id="Layer_1" data-name="Layer 1" xmlns="http://www.w3.org/2000/svg" xmlns:xlink="http://www.w3.org/1999/xlink" width="121.9" height="36.45" viewBox="0 0 121.9 36.45"><defs><style>.cls-1{fill:url(#linear-gradient);}.cls-2{fill:url(#linear-gradient-2);}.cls-3{fill:#fff3ea;}.cls-4{fill:none;}.cls-5{fill:#316531;}</style><linearGradient id="linear-gradient" x1="15.24" y1="36.6" x2="17.46" y2="36.6" gradientUnits="userSpaceOnUse"><stop offset="0" stop-color="#7fab5d"/><stop offset="1" stop-color="#205c2e"/></linearGradient><linearGradient id="linear-gradient-2" x1="20.89" y1="10.65" x2="20.76" y2="38.04" xlink:href="#linear-gradient"/></defs><path class="cls-1" d="M15.24,36a1.92,1.92,0,0,0,.71.87A1.64,1.64,0,0,0,17,37.2a2.7,2.7,0,0,0,.41-.05v0a1.8,1.8,0,0,0,0-.22A2.36,2.36,0,0,1,15.24,36Z" transform="translate(-2.05 -5.78)"/><path class="cls-2" d="M39,36.52,24.43,8.45l-.06-.14-.27-.5a3.85,3.85,0,0,0-1.22-1.39l-.06,0h0l-.31-.17-.14-.08a3.85,3.85,0,0,0-2.73-.19L19.5,6a3.51,3.51,0,0,0-1.07.59l-.07.06h0l-.13.12-.08.07a2.71,2.71,0,0,0-.35.4.47.47,0,0,0-.09.12,3.58,3.58,0,0,0-.29.46L17.32,8h0L2.49,36.52A3.91,3.91,0,0,0,6,42.22H14.5S17,42,17.45,37.54a1.82,1.82,0,0,1-1.77-.21,2.79,2.79,0,0,1-1-1.72c0-.13-.05-.25-.07-.38s0-.15.13-.11a4.19,4.19,0,0,0,1.32.21,3.85,3.85,0,0,1,.89.21,1.14,1.14,0,0,1,.6.84h0c0-.18,0-.38,0-.57a7.84,7.84,0,0,1,.85-3.7,6.17,6.17,0,0,1,.51-2.06c.79-1.71,3.13-3.68,7-2.94s.65.38-.15,3.31a4.57,4.57,0,0,1-6.22,3.24,7.26,7.26,0,0,1,3.42-5,5.52,5.52,0,0,0-.77.42,10.86,10.86,0,0,0-1.21,1,6.24,6.24,0,0,0-2.36,4.64,15.34,15.34,0,0,0,.42,3.65,1.87,1.87,0,0,1,1.64-1.21,2.81,2.81,0,0,1,1.84.71,3.2,3.2,0,0,1,.27.25c.07.06.08.13,0,.16a4.3,4.3,0,0,0-1.15.64,3.59,3.59,0,0,1-.82.38,1.16,1.16,0,0,1-1-.28l-.49-.43a2.35,2.35,0,0,1,2.38-.76,2,2,0,0,0-1.08-.24,1.78,1.78,0,0,0-1,.39c-.19.18-.37.38-.52.55a6.58,6.58,0,0,0,2.2,3.65H35.56A3.9,3.9,0,0,0,39,36.52ZM18,30.45a12.45,12.45,0,0,1-.74,1.1,4.77,4.77,0,0,1-2.11-4.65,4,4,0,0,0-.23,2.25,3.51,3.51,0,0,0,1.05,2c.56.49,1.21.88,1.72,1.25A4.06,4.06,0,0,1,14,29.17a5.67,5.67,0,0,1,1-3.89c.14-.21.29-.42.44-.62s.27-.18.34,0a8.6,8.6,0,0,0,1.57,2.16,6.42,6.42,0,0,1,1,1.58A2.28,2.28,0,0,1,18,30.45Zm6.75-7.31a4.41,4.41,0,0,1-5.44,4.06s0-4.07,3.38-5.81c-.14,0-5,1.3-4.09,6.94-.09-.24-1-2.77-.45-4.48s2.43-4,6.25-3.9S25,20.2,24.75,23.14Z" transform="translate(-2.05 -5.78)"/><circle class="cls-3" cx="20.55" cy="10.72" r="0.06"/><circle class="cls-3" cx="17.83" cy="11.65" r="0.07"/><circle class="cls-3" cx="18.44" cy="11.38" r="0.06"/><circle class="cls-3" cx="20.68" cy="10.35" r="0.08"/><circle class="cls-3" cx="18.91" cy="11.01" r="0.05"/><circle class="cls-3" cx="20.07" cy="10.48" r="0.07"/><circle class="cls-3" cx="19.71" cy="10.55" r="0.06"/><circle class="cls-3" cx="18.83" cy="10.84" r="0.09"/><circle class="cls-3" cx="20.21" cy="10.28" r="0.08"/><circle class="cls-3" cx="17.35" cy="11.38" r="0.07"/><circle class="cls-3" cx="20.29" cy="10.09" r="0.06"/><circle class="cls-3" cx="19.79" cy="10.11" r="0.08"/><circle class="cls-3" cx="17.08" cy="11" r="0.07"/><circle class="cls-3" cx="19.97" cy="9.77" r="0.05"/><circle class="cls-3" cx="19.25" cy="9.95" r="0.05"/><circle class="cls-3" cx="17.76" cy="10.44" r="0.06"/><circle class="cls-3" cx="18.67" cy="9.89" r="0.09"/><circle class="cls-3" cx="17.9" cy="10.18" r="0.08"/><circle class="cls-3" cx="18.01" cy="9.98" r="0.06"/><circle class="cls-3" cx="19.53" cy="9.27" r="0.06"/><circle class="cls-3" cx="17.58" cy="9.96" r="0.08"/><circle class="cls-3" cx="18.55" cy="9.42" r="0.07"/><circle class="cls-3" cx="17.87" cy="9.56" r="0.08"/><circle class="cls-3" cx="16.82" cy="9.82" r="0.08"/><circle class="cls-3" cx="17.15" cy="9.55" r="0.05"/><circle class="cls-3" cx="19.05" cy="8.79" r="0.08"/><circle class="cls-3" cx="18.41" cy="8.91" r="0.05"/><circle class="cls-3" cx="16.52" cy="9.54" r="0.09"/><circle class="cls-3" cx="18.97" cy="8.53" r="0.06"/><circle class="cls-3" cx="18.28" cy="8.74" r="0.07"/><circle class="cls-3" cx="17.2" cy="9.12" r="0.09"/><circle class="cls-3" cx="18.13" cy="8.62" r="0.07"/><circle class="cls-3" cx="19.29" cy="8.06" r="0.08"/><circle class="cls-3" cx="18.22" cy="8.35" r="0.05"/><circle class="cls-3" cx="17.95" cy="8.39" r="0.07"/><circle class="cls-3" cx="18.71" cy="7.99" r="0.08"/><circle class="cls-3" cx="17.75" cy="8.36" r="0.05"/><circle class="cls-3" cx="18.62" cy="7.92" r="0.09"/><circle class="cls-3" cx="17.89" cy="8.08" r="0.08"/><circle class="cls-3" cx="16.76" cy="8.35" r="0.06"/><circle class="cls-3" cx="19.51" cy="7.12" r="0.06"/><circle class="cls-3" cx="18.65" cy="7.36" r="0.07"/><circle class="cls-3" cx="17.53" cy="7.62" r="0.08"/><circle class="cls-3" cx="18.45" cy="7.08" r="0.06"/><circle class="cls-3" cx="18.12" cy="7.13" r="0.06"/><circle class="cls-3" cx="17.3" cy="7.27" r="0.06"/><circle class="cls-3" cx="18.9" cy="6.49" r="0.07"/><circle class="cls-3" cx="18.74" cy="6.48" r="0.05"/><circle class="cls-3" cx="17.74" cy="6.74" r="0.05"/><circle class="cls-3" cx="17.53" cy="6.69" r="0.09"/><circle class="cls-3" cx="17.22" cy="6.77" r="0.07"/><circle class="cls-3" cx="16.87" cy="6.76" r="0.05"/><circle class="cls-3" cx="16.19" cy="6.84" r="0.08"/><circle class="cls-3" cx="16.56" cy="6.61" r="0.07"/><circle class="cls-3" cx="19.09" cy="5.55" r="0.08"/><circle class="cls-3" cx="18.17" cy="5.8" r="0.07"/><circle class="cls-3" cx="18.43" cy="5.69" r="0.07"/><circle class="cls-3" cx="16.04" cy="6.46" r="0.08"/><circle class="cls-3" cx="15.84" cy="6.53" r="0.08"/><circle class="cls-3" cx="16.36" cy="6.27" r="0.08"/><circle class="cls-3" cx="18.05" cy="5.6" r="0.08"/><circle class="cls-3" cx="16.19" cy="6.14" r="0.09"/><circle class="cls-3" cx="17.94" cy="5.35" r="0.06"/><circle class="cls-3" cx="15.41" cy="6.19" r="0.06"/><circle class="cls-3" cx="15.95" cy="5.82" r="0.07"/><circle class="cls-3" cx="17.05" cy="5.28" r="0.09"/><circle class="cls-3" cx="17.15" cy="5.11" r="0.08"/><circle class="cls-3" cx="16.01" cy="5.46" r="0.06"/><circle class="cls-3" cx="18.26" cy="4.51" r="0.07"/><circle class="cls-3" cx="18.12" cy="4.55" r="0.08"/><circle class="cls-3" cx="16.02" cy="5.27" r="0.08"/><circle class="cls-3" cx="15.59" cy="5.28" r="0.08"/><circle class="cls-3" cx="16.8" cy="4.68" r="0.08"/><circle class="cls-3" cx="14.87" cy="5.39" r="0.08"/><circle class="cls-3" cx="15.19" cy="5.11" r="0.07"/><circle class="cls-3" cx="14.98" cy="5.1" r="0.09"/><circle class="cls-3" cx="16.66" cy="4.34" r="0.09"/><circle class="cls-3" cx="17.96" cy="3.8" r="0.06"/><circle class="cls-3" cx="15.57" cy="4.64" r="0.06"/><circle class="cls-3" cx="16.12" cy="4.35" r="0.07"/><circle class="cls-3" cx="15.66" cy="4.35" r="0.08"/><circle class="cls-3" cx="18.03" cy="3.27" r="0.06"/><circle class="cls-3" cx="17.73" cy="3.38" r="0.07"/><circle class="cls-3" cx="14.99" cy="4.42" r="0.09"/><circle class="cls-3" cx="16.26" cy="3.88" r="0.09"/><circle class="cls-3" cx="15.2" cy="4.1" r="0.06"/><circle class="cls-3" cx="16.45" cy="3.55" r="0.07"/><circle class="cls-3" cx="15.98" cy="3.62" r="0.08"/><circle class="cls-3" cx="17.95" cy="2.72" r="0.06"/><circle class="cls-3" cx="16.87" cy="3.13" r="0.07"/><circle class="cls-3" cx="15.66" cy="3.48" r="0.06"/><circle class="cls-3" cx="16.58" cy="3.1" r="0.08"/><circle class="cls-3" cx="15.13" cy="3.6" r="0.06"/><circle class="cls-3" cx="15.79" cy="3.22" r="0.07"/><circle class="cls-3" cx="17.4" cy="2.45" r="0.08"/><circle class="cls-3" cx="17.86" cy="2.22" r="0.06"/><circle class="cls-3" cx="15.88" cy="2.95" r="0.09"/><circle class="cls-3" cx="16" cy="2.81" r="0.07"/><circle class="cls-3" cx="16.96" cy="2.38" r="0.05"/><circle class="cls-3" cx="15.2" cy="2.96" r="0.08"/><circle class="cls-3" cx="16.34" cy="2.38" r="0.08"/><circle class="cls-3" cx="16.73" cy="1.99" r="0.06"/><circle class="cls-3" cx="16.15" cy="1.88" r="0.08"/><circle class="cls-3" cx="15.54" cy="2.02" r="0.07"/><circle class="cls-3" cx="17.01" cy="1.27" r="0.06"/><circle class="cls-3" cx="16.48" cy="0.88" r="0.06"/><circle class="cls-3" cx="17.1" cy="0.47" r="0.07"/><circle class="cls-3" cx="15.28" cy="2.15" r="0.08"/><circle class="cls-3" cx="15.49" cy="2" r="0.06"/><circle class="cls-3" cx="15.64" cy="1.97" r="0.08"/><circle class="cls-3" cx="15.7" cy="1.61" r="0.07"/><circle class="cls-3" cx="15.75" cy="1.91" r="0.08"/><circle class="cls-3" cx="16.15" cy="1.06" r="0.08"/><circle class="cls-3" cx="16.43" cy="1.45" r="0.09"/><circle class="cls-3" cx="16.87" cy="1.57" r="0.06"/><circle class="cls-3" cx="17" cy="0.53" r="0.08"/><circle class="cls-3" cx="17" cy="2.44" r="0.07"/><circle class="cls-3" cx="17.37" cy="1.94" r="0.06"/><circle class="cls-3" cx="17.46" cy="2.63" r="0.07"/><circle class="cls-3" cx="17.48" cy="2.33" r="0.06"/><circle class="cls-3" cx="17.49" cy="2.17" r="0.09"/><circle class="cls-3" cx="17.51" cy="0.21" r="0.08"/><circle class="cls-3" cx="17.68" cy="1.77" r="0.09"/><circle class="cls-3" cx="17.69" cy="2.71" r="0.05"/><circle class="cls-3" cx="18.05" cy="1.17" r="0.08"/><circle class="cls-3" cx="18.18" cy="0.13" r="0.05"/><circle class="cls-3" cx="18.24" cy="2.03" r="0.09"/><circle class="cls-3" cx="18.31" cy="1.48" r="0.06"/><circle class="cls-3" cx="18.31" cy="2.71" r="0.09"/><circle class="cls-3" cx="18.38" cy="1.88" r="0.09"/><circle class="cls-3" cx="18.72" cy="1.24" r="0.06"/><circle class="cls-3" cx="18.81" cy="2.76" r="0.07"/><circle class="cls-3" cx="18.89" cy="0.39" r="0.08"/><circle class="cls-3" cx="18.9" cy="2.7" r="0.06"/><circle class="cls-3" cx="19.01" cy="2.84" r="0.07"/><circle class="cls-3" cx="19.13" cy="2.92" r="0.08"/><circle class="cls-3" cx="19.22" cy="1.89" r="0.09"/><circle class="cls-3" cx="19.22" cy="1.6" r="0.08"/><circle class="cls-3" cx="19.36" cy="1.57" r="0.07"/><circle class="cls-3" cx="19.52" cy="2.87" r="0.07"/><circle class="cls-3" cx="19.81" cy="0.98" r="0.08"/><circle class="cls-3" cx="19.93" cy="2.37" r="0.07"/><circle class="cls-3" cx="20" cy="0.72" r="0.06"/><circle class="cls-3" cx="20.33" cy="2.15" r="0.05"/><circle class="cls-3" cx="20.47" cy="1.29" r="0.09"/><circle class="cls-3" cx="20.52" cy="1.48" r="0.08"/><circle class="cls-3" cx="20.67" cy="2.15" r="0.07"/><circle class="cls-3" cx="20.81" cy="0.58" r="0.07"/><circle class="cls-3" cx="20.95" cy="2.63" r="0.06"/><circle class="cls-3" cx="21.06" cy="1.02" r="0.08"/><circle class="cls-3" cx="21.2" cy="1.44" r="0.06"/><circle class="cls-3" cx="21.46" cy="1.96" r="0.06"/><circle class="cls-3" cx="22.37" cy="2.58" r="0.08"/><circle class="cls-3" cx="20.37" cy="0.39" r="0.09"/><circle class="cls-3" cx="20.78" cy="1.23" r="0.08"/><circle class="cls-3" cx="20.98" cy="1.33" r="0.05"/><circle class="cls-3" cx="21.04" cy="1.46" r="0.08"/><circle class="cls-3" cx="20.94" cy="1.52" r="0.07"/><circle class="cls-3" cx="20.81" cy="1.57" r="0.06"/><circle class="cls-3" cx="22.03" cy="2.23" r="0.08"/><circle class="cls-3" cx="21.71" cy="2.29" r="0.06"/><circle class="cls-3" cx="21.04" cy="2.18" r="0.05"/><circle class="cls-3" cx="20.62" cy="2.02" r="0.07"/><circle class="cls-3" cx="22.32" cy="2.76" r="0.05"/><circle class="cls-3" cx="19.64" cy="1.74" r="0.05"/><circle class="cls-3" cx="19.88" cy="1.97" r="0.05"/><circle class="cls-3" cx="20.85" cy="2.35" r="0.08"/><circle class="cls-3" cx="22.06" cy="2.99" r="0.08"/><circle class="cls-3" cx="21.42" cy="2.93" r="0.05"/><circle class="cls-3" cx="22.36" cy="3.34" r="0.06"/><circle class="cls-3" cx="22.54" cy="3.54" r="0.09"/><circle class="cls-3" cx="21.33" cy="3.09" r="0.06"/><circle class="cls-3" cx="20.23" cy="2.81" r="0.05"/><circle class="cls-3" cx="19.46" cy="2.7" r="0.07"/><circle class="cls-3" cx="21.41" cy="3.47" r="0.08"/><circle class="cls-3" cx="22.48" cy="3.93" r="0.09"/><circle class="cls-3" cx="21.65" cy="3.78" r="0.07"/><circle class="cls-3" cx="21.33" cy="3.78" r="0.09"/><circle class="cls-3" cx="20.49" cy="3.65" r="0.08"/><circle class="cls-3" cx="20.01" cy="3.6" r="0.08"/><circle class="cls-3" cx="19.98" cy="3.73" r="0.08"/><circle class="cls-3" cx="22.43" cy="4.87" r="0.05"/><circle class="cls-3" cx="18.71" cy="3.46" r="0.07"/><circle class="cls-3" cx="20.58" cy="4.34" r="0.08"/><circle class="cls-3" cx="20.57" cy="4.45" r="0.08"/><circle class="cls-3" cx="20.73" cy="4.57" r="0.08"/><circle class="cls-3" cx="20.69" cy="4.7" r="0.08"/><circle class="cls-3" cx="19.25" cy="4.23" r="0.08"/><circle class="cls-3" cx="21.88" cy="5.45" r="0.05"/><circle class="cls-3" cx="21.82" cy="5.6" r="0.06"/><circle class="cls-3" cx="19.16" cy="4.71" r="0.07"/><circle class="cls-3" cx="20.39" cy="5.23" r="0.08"/><circle class="cls-3" cx="19.72" cy="5.16" r="0.09"/><circle class="cls-3" cx="18.48" cy="4.85" r="0.07"/><circle class="cls-3" cx="20.57" cy="5.85" r="0.06"/><circle class="cls-3" cx="19.82" cy="5.6" r="0.06"/><circle class="cls-3" cx="18.25" cy="5.17" r="0.08"/><circle class="cls-3" cx="18.93" cy="5.52" r="0.07"/><circle class="cls-3" cx="19.47" cy="5.89" r="0.07"/><circle class="cls-3" cx="19.76" cy="6.03" r="0.08"/><circle class="cls-3" cx="19.03" cy="5.94" r="0.07"/><circle class="cls-3" cx="20.95" cy="6.76" r="0.09"/><circle class="cls-3" cx="21.55" cy="7.11" r="0.06"/><circle class="cls-3" cx="20.61" cy="6.82" r="0.08"/><circle class="cls-3" cx="19.17" cy="6.32" r="0.08"/><circle class="cls-3" cx="18.76" cy="6.32" r="0.08"/><circle class="cls-3" cx="20.02" cy="6.97" r="0.05"/><circle class="cls-3" cx="20.96" cy="7.46" r="0.09"/><circle class="cls-3" cx="18.63" cy="6.73" r="0.07"/><circle class="cls-3" cx="17.45" cy="6.33" r="0.07"/><circle class="cls-3" cx="20.75" cy="7.65" r="0.08"/><circle class="cls-3" cx="18.07" cy="6.6" r="0.06"/><circle class="cls-3" cx="18.14" cy="6.78" r="0.09"/><circle class="cls-3" cx="18.65" cy="7.14" r="0.08"/><circle class="cls-3" cx="17.84" cy="7.01" r="0.09"/><circle class="cls-3" cx="19.14" cy="7.66" r="0.07"/><circle class="cls-3" cx="17.81" cy="7.19" r="0.08"/><circle class="cls-3" cx="19.08" cy="7.84" r="0.07"/><circle class="cls-3" cx="20.48" cy="8.44" r="0.08"/><circle class="cls-3" cx="17.35" cy="7.3" r="0.08"/><circle class="cls-3" cx="18.82" cy="8.04" r="0.07"/><circle class="cls-3" cx="20" cy="8.55" r="0.09"/><circle class="cls-3" cx="17.78" cy="7.77" r="0.05"/><circle class="cls-3" cx="20.65" cy="9" r="0.07"/><circle class="cls-3" cx="18.79" cy="8.27" r="0.08"/><circle class="cls-3" cx="18.16" cy="8.15" r="0.05"/><circle class="cls-3" cx="18.91" cy="8.47" r="0.06"/><circle class="cls-3" cx="18.4" cy="8.35" r="0.08"/><circle class="cls-3" cx="18.81" cy="8.63" r="0.09"/><circle class="cls-3" cx="19.06" cy="8.78" r="0.08"/><circle class="cls-3" cx="17.33" cy="8.17" r="0.06"/><circle class="cls-3" cx="18.09" cy="8.56" r="0.06"/><circle class="cls-3" cx="16.75" cy="8.1" r="0.06"/><circle class="cls-3" cx="18.18" cy="8.74" r="0.09"/><circle class="cls-3" cx="20.03" cy="9.66" r="0.08"/><circle class="cls-3" cx="17.41" cy="8.67" r="0.05"/><circle class="cls-3" cx="19.61" cy="9.67" r="0.08"/><circle class="cls-3" cx="18.92" cy="9.51" r="0.07"/><circle class="cls-3" cx="17.43" cy="9.04" r="0.06"/><circle class="cls-3" cx="17.52" cy="9.21" r="0.07"/><circle class="cls-3" cx="18.19" cy="9.57" r="0.08"/><circle class="cls-3" cx="16.93" cy="9.22" r="0.07"/><circle class="cls-3" cx="20.06" cy="10.53" r="0.07"/><circle class="cls-3" cx="17.27" cy="9.59" r="0.05"/><circle class="cls-3" cx="18.87" cy="10.39" r="0.09"/><circle class="cls-3" cx="19.6" cy="10.87" r="0.09"/><circle class="cls-3" cx="18.73" cy="10.58" r="0.05"/><circle class="cls-3" cx="16.17" cy="9.7" r="0.07"/><circle class="cls-3" cx="16.2" cy="9.77" r="0.09"/><circle class="cls-3" cx="17.74" cy="10.45" r="0.06"/><circle class="cls-3" cx="18.21" cy="10.78" r="0.06"/><circle class="cls-3" cx="19.57" cy="11.48" r="0.07"/><circle class="cls-3" cx="16.19" cy="10.33" r="0.08"/><circle class="cls-3" cx="19.67" cy="11.73" r="0.08"/><circle class="cls-3" cx="18.36" cy="11.25" r="0.07"/><circle class="cls-3" cx="15.89" cy="10.3" r="0.08"/><circle class="cls-3" cx="15.94" cy="10.52" r="0.06"/><path class="cls-4" d="M35.56,42.22H6a3.91,3.91,0,0,1-3.47-5.7L17.31,8h0l.09-.19a3.58,3.58,0,0,1,.29-.46.47.47,0,0,1,.09-.12,2.71,2.71,0,0,1,.35-.4l.08-.07.13-.12h0l.07-.06A3.51,3.51,0,0,1,19.5,6l.14,0a3.85,3.85,0,0,1,2.73.19l.14.08.31.17h0l.06,0A3.85,3.85,0,0,1,24.1,7.81l.27.5.06.14L39,36.52A3.9,3.9,0,0,1,35.56,42.22Z" transform="translate(-2.05 -5.78)"/><path class="cls-5" d="M48,15v.14a.66.66,0,0,0-.61.6,3.94,3.94,0,0,0,.28,1.15l3.29,9.53c.4,1.17.63,1.54,1.56,1.91v.14H47.67v-.14c.9-.1,1-1,1-1.7,0-1.46-2.19-4.19-5.88-4.19l-1.14,3.24a4.34,4.34,0,0,0-.27,1.58c0,.58.32.93,1.13,1.07v.14H37.84v-.14c1.21-.19,1.86-1.44,2.41-2.95l3.12-8.43a5.2,5.2,0,0,0,.35-1.21c0-.31-.2-.52-.6-.6V15ZM45.1,16.12l-2,5.41A6.43,6.43,0,0,1,47.52,23Z" transform="translate(-2.05 -5.78)"/><path class="cls-5" d="M57.49,15v.14c-1.08,0-1.46.41-1.58,2.26-.15,2.42-.46,6.21-.46,7.26,0,2,1.49,2.87,3.4,2.87a3.65,3.65,0,0,0,2.69-1,4.21,4.21,0,0,0,.8-3l-.23-5.37c-.12-2.81-1.13-3-1.76-3V15H65v.14a1.39,1.39,0,0,0-1.48,1.56c0,.21.18,4.64.28,7.2a4.79,4.79,0,0,1-.83,2.87,5.47,5.47,0,0,1-4.63,1.91,6.33,6.33,0,0,1-3.84-1.09,3.38,3.38,0,0,1-1.18-3.12c.1-2,.4-5.31.53-8.1,0-.74-.33-1.21-1.26-1.23V15Z" transform="translate(-2.05 -5.78)"/><path class="cls-5" d="M74.85,15c2.09,0,3.19.63,3.19,1.93,0,1.15-.65,2.29-3.16,3.5a20.23,20.23,0,0,1,3.92,6.44c.32.89.45,1.32,1.58,1.46v.14H75.73v-.14c.56-.06.78-.39.78-.66,0-1.19-1.61-4.39-3.57-6.44a22.27,22.27,0,0,1-2.94,1v4.53c0,1.19.61,1.52,1.28,1.6v.14H66.53v-.14c.83-.06,1.29-.41,1.29-1.58v-10c0-1.17-.46-1.52-1.29-1.58V15ZM70,17.31v3.91c3.7-1,5.61-2.19,5.61-3.89,0-1.32-1.34-1.54-3-1.54C70.43,15.79,70,16.16,70,17.31Z" transform="translate(-2.05 -5.78)"/><path class="cls-5" d="M90.28,14.64l.83,4.1-.13,0,0-.06c-.8-1.76-2.69-2.81-5.13-2.81-1.43,0-1.86.47-1.86,1.25v1.62h2c1.36,0,1.69-.43,1.89-1.21H88l.8,4.56-.15,0c-.6-1.48-1.18-2.28-3.16-2.28H84v5.72c0,1.44.61,1.87,2.42,1.87a6.62,6.62,0,0,0,5.78-3.84l.12,0-1.58,5.05a1.17,1.17,0,0,0-.68-.23H80.5v-.14c.83-.06,1.29-.41,1.29-1.58v-10c0-1.17-.46-1.52-1.29-1.58V15h8.85A1.08,1.08,0,0,0,90.28,14.64Z" transform="translate(-2.05 -5.78)"/><path class="cls-5" d="M97.94,15v.14c-.67.08-1.28.41-1.28,1.6v9.21c0,1.09.35,1.72,1.74,1.72,1.83,0,3.94-1.15,5.37-3.95l.15,0-1.58,5a1.25,1.25,0,0,0-.8-.29H93.19v-.14c.76-.06,1.29-.39,1.29-1.6v-10c0-1.19-.53-1.54-1.29-1.6V15Z" transform="translate(-2.05 -5.78)"/><path class="cls-5" d="M109.1,15v.14c-.68.08-1.28.41-1.28,1.6v10c0,1.19.6,1.52,1.28,1.6v.14h-4.75v-.14c.75-.08,1.28-.39,1.28-1.6v-10c0-1.19-.53-1.54-1.28-1.6V15Z" transform="translate(-2.05 -5.78)"/><path class="cls-5" d="M116.31,15v.14c-.75,0-.88.41-.88.62a1.85,1.85,0,0,0,.4,1.06l1.61,2.53L119,17a2.74,2.74,0,0,0,.53-1.19.6.6,0,0,0-.66-.68h-.1V15H123v.14c-.28,0-1.21-.06-2.52,1.89l-2.31,3.49,4,6.27c.85,1.35,1.35,1.46,1.83,1.54v.14h-5.18v-.14c.71-.06,1.06-.39,1.06-.82a2.29,2.29,0,0,0-.48-1.21l-2.61-4.14-2.44,4a3.11,3.11,0,0,0-.58,1.35.77.77,0,0,0,.78.8v.14H110v-.14l.18,0c.78-.12,1.36-.49,2.84-2.73L116,21l-2.24-3.61c-.93-1.52-1.68-2.28-2.49-2.22V15Z" transform="translate(-2.05 -5.78)"/><path class="cls-5" d="M46.13,39.22l-3.68-4.69,0,.38,0,.65v3.66h-.83v-5.5h1.09l3.72,4.71c0-.51-.06-.88-.06-1.1V33.72h.84v5.5Z" transform="translate(-2.05 -5.78)"/><path class="cls-5" d="M52.57,39.3a4.11,4.11,0,0,1-1.47-.25,2.14,2.14,0,0,1-1-.71,1.87,1.87,0,0,1-.35-1.12v-3.5h.94v3.44a1.41,1.41,0,0,0,.47,1.14,2.14,2.14,0,0,0,1.38.39,2.31,2.31,0,0,0,1.45-.4,1.43,1.43,0,0,0,.51-1.18V33.72h.93v3.43a1.94,1.94,0,0,1-.35,1.15,2.25,2.25,0,0,1-1,.74A4.19,4.19,0,0,1,52.57,39.3Z" transform="translate(-2.05 -5.78)"/><path class="cls-5" d="M60.67,34.33v4.89h-.92V34.33H57.38v-.61H63v.61Z" transform="translate(-2.05 -5.78)"/><path class="cls-5" d="M69.88,39.22,68.1,36.93H66v2.29H65v-5.5h3.24a3.32,3.32,0,0,1,1.79.41,1.33,1.33,0,0,1,.64,1.16,1.35,1.35,0,0,1-.45,1,2.18,2.18,0,0,1-1.23.53L71,39.22Zm-.13-3.92a.8.8,0,0,0-.41-.73,2.21,2.21,0,0,0-1.17-.25H66v2h2.25a2,2,0,0,0,1.14-.27A.89.89,0,0,0,69.75,35.3Z" transform="translate(-2.05 -5.78)"/><path class="cls-5" d="M78.06,39.22l-.79-1.61H74.14l-.79,1.61h-1l2.81-5.5h1.06L79,39.22ZM75.7,34.28l0,.11c-.08.22-.2.49-.36.83L74.42,37H77l-.88-1.82c-.09-.18-.18-.38-.27-.61Z" transform="translate(-2.05 -5.78)"/><path class="cls-5" d="M84,39.22v-5.5h.93v4.89h3.48v.61Z" transform="translate(-2.05 -5.78)"/><path class="cls-5" d="M95.33,39.22l-.79-1.61H91.41l-.79,1.61h-1l2.81-5.5h1.06l2.76,5.5ZM93,34.28l0,.11c-.08.22-.2.49-.36.83L91.69,37h2.57l-.88-1.82c-.09-.18-.18-.38-.27-.61Z" transform="translate(-2.05 -5.78)"/><path class="cls-5" d="M103.38,37.67a1.28,1.28,0,0,1-.67,1.14,3.61,3.61,0,0,1-1.86.41H98.06v-5.5h2.5c1.61,0,2.42.44,2.42,1.33a1.09,1.09,0,0,1-.35.82,1.83,1.83,0,0,1-1,.45,2.3,2.3,0,0,1,1.26.44A1.11,1.11,0,0,1,103.38,37.67ZM102,35.14a.65.65,0,0,0-.38-.63,2.47,2.47,0,0,0-1.1-.19H99v1.74h1.57a2.16,2.16,0,0,0,1.11-.23A.75.75,0,0,0,102,35.14Zm.39,2.47c0-.65-.56-1-1.7-1H99v2h1.81a2.33,2.33,0,0,0,1.24-.25A.84.84,0,0,0,102.43,37.61Z" transform="translate(-2.05 -5.78)"/><path class="cls-5" d="M111.05,37.7a1.3,1.3,0,0,1-.74,1.18,4.34,4.34,0,0,1-2.1.42c-1.68,0-2.65-.47-2.91-1.4l.9-.15a1.14,1.14,0,0,0,.66.73,3.3,3.3,0,0,0,1.38.23,3.26,3.26,0,0,0,1.4-.24.8.8,0,0,0,.49-.73.6.6,0,0,0-.16-.44,1.19,1.19,0,0,0-.43-.28,3.85,3.85,0,0,0-.66-.18l-.86-.16a8.73,8.73,0,0,1-1.23-.29,2.33,2.33,0,0,1-.67-.32,1.22,1.22,0,0,1-.37-.42,1.05,1.05,0,0,1-.13-.54,1.19,1.19,0,0,1,.67-1.09,4,4,0,0,1,1.94-.38,4.43,4.43,0,0,1,1.79.28,1.66,1.66,0,0,1,.87,1L110,35a1.09,1.09,0,0,0-.57-.64,2.93,2.93,0,0,0-1.18-.19,2.82,2.82,0,0,0-1.26.22.68.68,0,0,0-.43.65.54.54,0,0,0,.17.42,1.35,1.35,0,0,0,.48.28,8.47,8.47,0,0,0,1.26.28l.64.12a5.26,5.26,0,0,1,.6.15,4.29,4.29,0,0,1,.54.19,2,2,0,0,1,.44.28,1.24,1.24,0,0,1,.29.39A1.21,1.21,0,0,1,111.05,37.7Z" transform="translate(-2.05 -5.78)"/></svg>