<svg id="Layer_1" data-name="Layer 1" xmlns="http://www.w3.org/2000/svg" width="122.24" height="36.33" viewBox="0 0 122.24 36.33"><defs><style>.cls-1{fill:#fff;}.cls-2{fill:#316531;}</style></defs><path class="cls-1" d="M15,36a1.92,1.92,0,0,0,.71.87,1.62,1.62,0,0,0,1.08.34,3.05,3.05,0,0,0,.41,0v0c0-.07,0-.14,0-.21A2.34,2.34,0,0,1,15,36Z" transform="translate(-1.88 -5.84)"/><path class="cls-1" d="M38.73,36.49,24.18,8.5l-.06-.13-.27-.51a3.71,3.71,0,0,0-1.21-1.38s0,0-.06,0h0l-.3-.17-.15-.07A3.79,3.79,0,0,0,19.4,6l-.13,0a3.34,3.34,0,0,0-1.07.6l-.07,0v0a1.7,1.7,0,0,0-.14.1l-.07.08a2.55,2.55,0,0,0-.36.38l-.09.14a2.49,2.49,0,0,0-.29.45l-.09.19L2.32,36.49a3.88,3.88,0,0,0,3.45,5.67h8.51s2.46-.21,3-4.67a1.8,1.8,0,0,1-1.77-.2,2.79,2.79,0,0,1-1-1.72c0-.12,0-.25-.06-.37s0-.15.12-.12a3.93,3.93,0,0,0,1.32.22,3,3,0,0,1,.89.21,1.14,1.14,0,0,1,.59.84,5.24,5.24,0,0,0,0-.57,7.75,7.75,0,0,1,.85-3.68A6.36,6.36,0,0,1,18.68,30c.8-1.7,3.12-3.67,7-2.93s.63.39-.17,3.29a4.55,4.55,0,0,1-6.2,3.24,7.3,7.3,0,0,1,3.42-4.93,5.44,5.44,0,0,0-.77.42,11.94,11.94,0,0,0-1.21,1,6.26,6.26,0,0,0-2.35,4.62,15.68,15.68,0,0,0,.42,3.64,1.84,1.84,0,0,1,1.63-1.2,2.8,2.8,0,0,1,1.84.7l.27.26c.08.06.08.13,0,.16a4.72,4.72,0,0,0-1.14.63,3.24,3.24,0,0,1-.82.38,1.12,1.12,0,0,1-1-.27c-.18-.14-.33-.29-.49-.44a2.39,2.39,0,0,1,2.38-.75,2,2,0,0,0-1.08-.24,1.8,1.8,0,0,0-1.05.39c-.18.17-.36.38-.51.54a6.62,6.62,0,0,0,2.19,3.64H35.28A3.88,3.88,0,0,0,38.73,36.49Zm-21-6.06c-.21.38-.48.72-.74,1.1a4.81,4.81,0,0,1-2.11-4.63,4.08,4.08,0,0,0-.21,2.25,3.42,3.42,0,0,0,1,2c.55.48,1.19.87,1.72,1.25a4.05,4.05,0,0,1-3.64-3.24,5.57,5.57,0,0,1,1-3.88c.14-.21.3-.42.44-.61s.27-.18.34,0a8.79,8.79,0,0,0,1.57,2.16,6.82,6.82,0,0,1,1,1.57A2.24,2.24,0,0,1,17.77,30.43Zm6.74-7.29a4.39,4.39,0,0,1-5.44,4s0-4.06,3.37-5.78c-.13,0-4.93,1.3-4.07,6.91-.09-.23-1-2.76-.45-4.47s2.43-4,6.23-3.88S24.79,20.22,24.51,23.14Z" transform="translate(-1.88 -5.84)"/><circle class="cls-2" cx="15.06" cy="5.29" r="0.08"/><circle class="cls-2" cx="15.17" cy="5" r="0.09"/><circle class="cls-2" cx="15.18" cy="4.33" r="0.09"/><circle class="cls-2" cx="20.85" cy="10.23" r="0.08"/><circle class="cls-2" cx="20.24" cy="10.37" r="0.07"/><circle class="cls-2" cx="19.88" cy="10.44" r="0.06"/><circle class="cls-2" cx="20.38" cy="10.17" r="0.08"/><circle class="cls-2" cx="20.46" cy="9.98" r="0.06"/><circle class="cls-2" cx="19.96" cy="10" r="0.08"/><circle class="cls-2" cx="20.14" cy="9.66" r="0.05"/><circle class="cls-2" cx="19.43" cy="9.83" r="0.05"/><circle class="cls-2" cx="17.94" cy="10.32" r="0.06"/><circle class="cls-2" cx="18.85" cy="9.78" r="0.09"/><circle class="cls-2" cx="18.08" cy="10.06" r="0.08"/><circle class="cls-2" cx="18.19" cy="9.87" r="0.06"/><circle class="cls-2" cx="19.71" cy="9.15" r="0.06"/><circle class="cls-2" cx="17.77" cy="9.84" r="0.08"/><circle class="cls-2" cx="18.73" cy="9.31" r="0.07"/><circle class="cls-2" cx="18.06" cy="9.44" r="0.07"/><circle class="cls-2" cx="17.01" cy="9.71" r="0.07"/><circle class="cls-2" cx="17.33" cy="9.44" r="0.05"/><circle class="cls-2" cx="19.23" cy="8.68" r="0.08"/><circle class="cls-2" cx="18.59" cy="8.79" r="0.05"/><circle class="cls-2" cx="16.71" cy="9.43" r="0.09"/><circle class="cls-2" cx="19.15" cy="8.43" r="0.06"/><circle class="cls-2" cx="18.46" cy="8.63" r="0.07"/><circle class="cls-2" cx="17.38" cy="9.01" r="0.08"/><circle class="cls-2" cx="18.31" cy="8.51" r="0.07"/><circle class="cls-2" cx="19.46" cy="7.95" r="0.08"/><circle class="cls-2" cx="18.4" cy="8.24" r="0.05"/><circle class="cls-2" cx="18.13" cy="8.28" r="0.07"/><circle class="cls-2" cx="18.89" cy="7.88" r="0.08"/><circle class="cls-2" cx="17.93" cy="8.25" r="0.05"/><circle class="cls-2" cx="18.8" cy="7.81" r="0.09"/><circle class="cls-2" cx="18.07" cy="7.97" r="0.08"/><circle class="cls-2" cx="16.94" cy="8.24" r="0.06"/><circle class="cls-2" cx="19.68" cy="7.01" r="0.06"/><circle class="cls-2" cx="18.83" cy="7.25" r="0.07"/><circle class="cls-2" cx="17.71" cy="7.51" r="0.08"/><circle class="cls-2" cx="18.63" cy="6.98" r="0.06"/><circle class="cls-2" cx="18.3" cy="7.02" r="0.06"/><circle class="cls-2" cx="17.48" cy="7.16" r="0.06"/><circle class="cls-2" cx="19.08" cy="6.38" r="0.07"/><circle class="cls-2" cx="18.92" cy="6.38" r="0.05"/><circle class="cls-2" cx="17.92" cy="6.64" r="0.05"/><circle class="cls-2" cx="17.71" cy="6.58" r="0.09"/><circle class="cls-2" cx="17.4" cy="6.66" r="0.07"/><circle class="cls-2" cx="17.05" cy="6.66" r="0.05"/><circle class="cls-2" cx="16.38" cy="6.74" r="0.08"/><circle class="cls-2" cx="16.74" cy="6.5" r="0.07"/><circle class="cls-2" cx="19.26" cy="5.45" r="0.08"/><circle class="cls-2" cx="18.35" cy="5.7" r="0.07"/><circle class="cls-2" cx="18.61" cy="5.59" r="0.07"/><circle class="cls-2" cx="16.23" cy="6.35" r="0.08"/><circle class="cls-2" cx="16.02" cy="6.43" r="0.08"/><circle class="cls-2" cx="16.54" cy="6.17" r="0.08"/><circle class="cls-2" cx="18.23" cy="5.5" r="0.08"/><circle class="cls-2" cx="16.38" cy="6.04" r="0.09"/><circle class="cls-2" cx="18.12" cy="5.25" r="0.06"/><circle class="cls-2" cx="15.6" cy="6.09" r="0.06"/><circle class="cls-2" cx="16.13" cy="5.72" r="0.07"/><circle class="cls-2" cx="17.24" cy="5.19" r="0.09"/><circle class="cls-2" cx="17.33" cy="5.01" r="0.08"/><circle class="cls-2" cx="16.2" cy="5.36" r="0.06"/><circle class="cls-2" cx="18.44" cy="4.41" r="0.07"/><circle class="cls-2" cx="18.3" cy="4.45" r="0.07"/><circle class="cls-2" cx="16.2" cy="5.17" r="0.08"/><circle class="cls-2" cx="15.78" cy="5.19" r="0.08"/><circle class="cls-2" cx="16.99" cy="4.58" r="0.08"/><circle class="cls-2" cx="15.38" cy="5.01" r="0.07"/><circle class="cls-2" cx="16.84" cy="4.25" r="0.08"/><circle class="cls-2" cx="18.14" cy="3.71" r="0.06"/><circle class="cls-2" cx="15.76" cy="4.54" r="0.06"/><circle class="cls-2" cx="16.31" cy="4.26" r="0.07"/><circle class="cls-2" cx="15.85" cy="4.25" r="0.08"/><circle class="cls-2" cx="18.21" cy="3.18" r="0.06"/><circle class="cls-2" cx="17.91" cy="3.28" r="0.07"/><circle class="cls-2" cx="16.45" cy="3.78" r="0.09"/><circle class="cls-2" cx="15.39" cy="4.01" r="0.06"/><circle class="cls-2" cx="16.63" cy="3.46" r="0.07"/><circle class="cls-2" cx="16.17" cy="3.52" r="0.08"/><circle class="cls-2" cx="18.13" cy="2.63" r="0.06"/><circle class="cls-2" cx="17.05" cy="3.04" r="0.07"/><circle class="cls-2" cx="15.85" cy="3.38" r="0.06"/><circle class="cls-2" cx="16.76" cy="3.01" r="0.08"/><circle class="cls-2" cx="15.32" cy="3.51" r="0.06"/><circle class="cls-2" cx="15.97" cy="3.13" r="0.07"/><circle class="cls-2" cx="17.59" cy="2.36" r="0.08"/><circle class="cls-2" cx="18.04" cy="2.13" r="0.06"/><circle class="cls-2" cx="16.07" cy="2.86" r="0.09"/><circle class="cls-2" cx="16.19" cy="2.72" r="0.07"/><circle class="cls-2" cx="17.14" cy="2.29" r="0.05"/><circle class="cls-2" cx="15.39" cy="2.87" r="0.08"/><circle class="cls-2" cx="16.53" cy="2.29" r="0.08"/><circle class="cls-2" cx="16.91" cy="1.9" r="0.06"/><circle class="cls-2" cx="16.34" cy="1.79" r="0.08"/><circle class="cls-2" cx="15.72" cy="1.93" r="0.07"/><circle class="cls-2" cx="17.19" cy="1.19" r="0.06"/><circle class="cls-2" cx="16.66" cy="0.79" r="0.06"/><circle class="cls-2" cx="17.29" cy="0.38" r="0.07"/><circle class="cls-2" cx="15.47" cy="2.06" r="0.08"/><circle class="cls-2" cx="15.68" cy="1.91" r="0.06"/><circle class="cls-2" cx="15.83" cy="1.88" r="0.08"/><circle class="cls-2" cx="15.89" cy="1.53" r="0.07"/><circle class="cls-2" cx="15.93" cy="1.82" r="0.08"/><circle class="cls-2" cx="16.34" cy="0.98" r="0.08"/><circle class="cls-2" cx="16.61" cy="1.36" r="0.09"/><circle class="cls-2" cx="17.06" cy="1.48" r="0.06"/><circle class="cls-2" cx="17.18" cy="0.44" r="0.08"/><circle class="cls-2" cx="17.18" cy="2.35" r="0.07"/><circle class="cls-2" cx="17.55" cy="1.85" r="0.06"/><circle class="cls-2" cx="17.65" cy="2.54" r="0.07"/><circle class="cls-2" cx="17.66" cy="2.24" r="0.06"/><circle class="cls-2" cx="17.67" cy="2.08" r="0.09"/><circle class="cls-2" cx="17.69" cy="0.13" r="0.08"/><circle class="cls-2" cx="17.86" cy="1.68" r="0.09"/><circle class="cls-2" cx="17.88" cy="2.62" r="0.05"/><circle class="cls-2" cx="18.23" cy="1.09" r="0.08"/><circle class="cls-2" cx="18.36" cy="0.05" r="0.05"/><circle class="cls-2" cx="18.42" cy="1.94" r="0.09"/><circle class="cls-2" cx="18.49" cy="1.39" r="0.06"/><circle class="cls-2" cx="18.49" cy="2.62" r="0.09"/><circle class="cls-2" cx="18.56" cy="1.79" r="0.09"/><circle class="cls-2" cx="18.9" cy="1.16" r="0.06"/><circle class="cls-2" cx="18.99" cy="2.67" r="0.07"/><circle class="cls-2" cx="19.06" cy="0.3" r="0.08"/><circle class="cls-2" cx="19.07" cy="2.61" r="0.06"/><circle class="cls-2" cx="19.19" cy="2.74" r="0.07"/><circle class="cls-2" cx="19.31" cy="2.83" r="0.08"/><circle class="cls-2" cx="19.39" cy="1.8" r="0.09"/><circle class="cls-2" cx="19.4" cy="1.52" r="0.08"/><circle class="cls-2" cx="19.54" cy="1.48" r="0.07"/><circle class="cls-2" cx="19.7" cy="2.78" r="0.07"/><circle class="cls-2" cx="19.99" cy="0.89" r="0.08"/><circle class="cls-2" cx="20.11" cy="2.28" r="0.07"/><circle class="cls-2" cx="20.17" cy="0.63" r="0.06"/><circle class="cls-2" cx="20.5" cy="2.07" r="0.05"/><circle class="cls-2" cx="20.64" cy="1.21" r="0.09"/><circle class="cls-2" cx="20.69" cy="1.4" r="0.08"/><circle class="cls-2" cx="20.84" cy="2.07" r="0.07"/><circle class="cls-2" cx="20.98" cy="0.49" r="0.07"/><circle class="cls-2" cx="21.12" cy="2.54" r="0.06"/><circle class="cls-2" cx="21.23" cy="0.94" r="0.08"/><circle class="cls-2" cx="21.37" cy="1.35" r="0.06"/><circle class="cls-2" cx="21.63" cy="1.87" r="0.06"/><circle class="cls-2" cx="20.55" cy="0.31" r="0.09"/><circle class="cls-2" cx="20.95" cy="1.14" r="0.08"/><circle class="cls-2" cx="21.15" cy="1.24" r="0.05"/><circle class="cls-2" cx="21.22" cy="1.38" r="0.08"/><circle class="cls-2" cx="21.11" cy="1.43" r="0.07"/><circle class="cls-2" cx="20.98" cy="1.49" r="0.06"/><circle class="cls-2" cx="22.2" cy="2.14" r="0.08"/><circle class="cls-2" cx="21.88" cy="2.2" r="0.06"/><circle class="cls-2" cx="21.21" cy="2.09" r="0.05"/><circle class="cls-2" cx="20.79" cy="1.93" r="0.07"/><circle class="cls-2" cx="19.81" cy="1.66" r="0.05"/><circle class="cls-2" cx="20.06" cy="1.88" r="0.05"/><circle class="cls-2" cx="21.02" cy="2.26" r="0.08"/><circle class="cls-2" cx="22.23" cy="2.9" r="0.08"/><circle class="cls-2" cx="21.59" cy="2.84" r="0.05"/><circle class="cls-2" cx="21.5" cy="3" r="0.05"/><circle class="cls-2" cx="20.4" cy="2.72" r="0.05"/><circle class="cls-2" cx="19.64" cy="2.61" r="0.07"/><circle class="cls-2" cx="21.58" cy="3.38" r="0.08"/><circle class="cls-2" cx="21.82" cy="3.69" r="0.07"/><circle class="cls-2" cx="21.5" cy="3.69" r="0.09"/><circle class="cls-2" cx="20.67" cy="3.55" r="0.08"/><circle class="cls-2" cx="20.18" cy="3.51" r="0.08"/><circle class="cls-2" cx="20.15" cy="3.64" r="0.08"/><circle class="cls-2" cx="18.89" cy="3.36" r="0.07"/><circle class="cls-2" cx="20.75" cy="4.24" r="0.08"/><circle class="cls-2" cx="20.74" cy="4.36" r="0.08"/><circle class="cls-2" cx="20.9" cy="4.47" r="0.08"/><circle class="cls-2" cx="20.87" cy="4.6" r="0.08"/><circle class="cls-2" cx="19.43" cy="4.13" r="0.08"/><circle class="cls-2" cx="22.05" cy="5.35" r="0.05"/><circle class="cls-2" cx="21.99" cy="5.5" r="0.06"/><circle class="cls-2" cx="19.34" cy="4.61" r="0.07"/><circle class="cls-2" cx="20.56" cy="5.13" r="0.07"/><circle class="cls-2" cx="19.89" cy="5.06" r="0.09"/><circle class="cls-2" cx="18.66" cy="4.75" r="0.07"/><circle class="cls-2" cx="20.74" cy="5.75" r="0.06"/><circle class="cls-2" cx="20" cy="5.5" r="0.06"/><circle class="cls-2" cx="18.43" cy="5.07" r="0.08"/><circle class="cls-2" cx="19.11" cy="5.42" r="0.07"/><circle class="cls-2" cx="19.64" cy="5.79" r="0.07"/><circle class="cls-2" cx="19.93" cy="5.93" r="0.08"/><circle class="cls-2" cx="19.21" cy="5.84" r="0.07"/><circle class="cls-2" cx="21.13" cy="6.66" r="0.09"/><circle class="cls-2" cx="21.72" cy="7.01" r="0.06"/><circle class="cls-2" cx="20.78" cy="6.71" r="0.08"/><circle class="cls-2" cx="19.35" cy="6.22" r="0.08"/><circle class="cls-2" cx="18.94" cy="6.21" r="0.08"/><circle class="cls-2" cx="20.19" cy="6.87" r="0.05"/><circle class="cls-2" cx="21.13" cy="7.35" r="0.09"/><circle class="cls-2" cx="18.8" cy="6.63" r="0.07"/><circle class="cls-2" cx="17.63" cy="6.23" r="0.07"/><circle class="cls-2" cx="20.92" cy="7.54" r="0.08"/><circle class="cls-2" cx="18.25" cy="6.49" r="0.06"/><circle class="cls-2" cx="18.32" cy="6.68" r="0.09"/><circle class="cls-2" cx="18.83" cy="7.03" r="0.08"/><circle class="cls-2" cx="18.03" cy="6.9" r="0.09"/><circle class="cls-2" cx="19.32" cy="7.55" r="0.07"/><circle class="cls-2" cx="17.99" cy="7.09" r="0.08"/><circle class="cls-2" cx="19.26" cy="7.73" r="0.07"/><circle class="cls-2" cx="20.65" cy="8.33" r="0.08"/><circle class="cls-2" cx="17.53" cy="7.2" r="0.08"/><circle class="cls-2" cx="19" cy="7.93" r="0.07"/><circle class="cls-2" cx="20.17" cy="8.44" r="0.09"/><circle class="cls-2" cx="17.96" cy="7.66" r="0.05"/><circle class="cls-2" cx="20.83" cy="8.89" r="0.07"/><circle class="cls-2" cx="18.97" cy="8.16" r="0.08"/><circle class="cls-2" cx="18.34" cy="8.05" r="0.05"/><circle class="cls-2" cx="19.09" cy="8.36" r="0.06"/><circle class="cls-2" cx="18.58" cy="8.24" r="0.08"/><circle class="cls-2" cx="18.99" cy="8.52" r="0.09"/><circle class="cls-2" cx="19.24" cy="8.67" r="0.08"/><circle class="cls-2" cx="17.51" cy="8.06" r="0.06"/><circle class="cls-2" cx="18.27" cy="8.45" r="0.06"/><circle class="cls-2" cx="16.93" cy="7.99" r="0.06"/><circle class="cls-2" cx="18.36" cy="8.63" r="0.09"/><circle class="cls-2" cx="20.21" cy="9.55" r="0.08"/><circle class="cls-2" cx="17.59" cy="8.56" r="0.05"/><circle class="cls-2" cx="19.79" cy="9.56" r="0.08"/><circle class="cls-2" cx="19.1" cy="9.39" r="0.07"/><circle class="cls-2" cx="17.62" cy="8.93" r="0.06"/><circle class="cls-2" cx="17.71" cy="9.09" r="0.07"/><circle class="cls-2" cx="18.37" cy="9.46" r="0.08"/><circle class="cls-2" cx="17.11" cy="9.11" r="0.07"/><circle class="cls-2" cx="20.23" cy="10.42" r="0.07"/><circle class="cls-2" cx="17.46" cy="9.48" r="0.05"/><circle class="cls-2" cx="19.04" cy="10.28" r="0.09"/><circle class="cls-2" cx="16.36" cy="9.59" r="0.07"/><circle class="cls-2" cx="16.38" cy="9.66" r="0.09"/><circle class="cls-2" cx="17.92" cy="10.33" r="0.05"/><circle class="cls-2" cx="16.38" cy="10.22" r="0.08"/><circle class="cls-2" cx="16.08" cy="10.19" r="0.08"/><circle class="cls-2" cx="16.13" cy="10.4" r="0.06"/><path class="cls-1" d="M48.38,13.55v.14a.65.65,0,0,0-.6.59,4.07,4.07,0,0,0,.27,1.15l3.28,9.5c.4,1.16.63,1.53,1.56,1.9V27H48.08v-.14c.9-.11,1-1,1-1.7,0-1.45-2.17-4.17-5.85-4.17l-1.13,3.23a4.27,4.27,0,0,0-.28,1.57c0,.58.33.92,1.13,1.07V27H38.29v-.14c1.2-.19,1.85-1.43,2.4-2.94l3.11-8.4a5.07,5.07,0,0,0,.35-1.21c0-.3-.2-.51-.6-.59v-.14Zm-2.86,1.12-2,5.39a6.37,6.37,0,0,1,4.38,1.46Z" transform="translate(-1.88 -5.84)"/><path class="cls-1" d="M57.87,13.55v.14c-1.07,0-1.45.41-1.58,2.25-.15,2.41-.45,6.19-.45,7.23,0,1.94,1.48,2.86,3.38,2.86a3.64,3.64,0,0,0,2.68-1,4.21,4.21,0,0,0,.81-3l-.23-5.36c-.13-2.8-1.13-3-1.75-3v-.14h4.58v.14a1.38,1.38,0,0,0-1.48,1.55c0,.21.18,4.62.28,7.17a4.74,4.74,0,0,1-.83,2.86,5.42,5.42,0,0,1-4.61,1.9,6.3,6.3,0,0,1-3.83-1.08A3.37,3.37,0,0,1,53.67,23c.1-2,.4-5.3.52-8.07,0-.74-.32-1.21-1.25-1.23v-.14Z" transform="translate(-1.88 -5.84)"/><path class="cls-1" d="M75.18,13.55c2.08,0,3.18.63,3.18,1.92,0,1.14-.65,2.29-3.16,3.49a20,20,0,0,1,3.91,6.42c.33.87.45,1.3,1.58,1.45V27H76.05v-.14c.56-.06.78-.39.78-.66,0-1.18-1.6-4.37-3.55-6.41a24.52,24.52,0,0,1-2.93,1v4.51c0,1.19.6,1.52,1.27,1.6V27H66.89v-.14c.83-.06,1.28-.41,1.28-1.58v-10c0-1.16-.45-1.51-1.28-1.57v-.14Zm-4.83,2.31v3.9c3.68-1,5.58-2.19,5.58-3.88,0-1.31-1.33-1.54-3-1.54C70.77,14.34,70.35,14.71,70.35,15.86Z" transform="translate(-1.88 -5.84)"/><path class="cls-1" d="M90.56,13.2l.82,4.09-.12,0,0-.06c-.8-1.76-2.68-2.8-5.11-2.8-1.42,0-1.85.47-1.85,1.24v1.62h2c1.35,0,1.67-.43,1.87-1.21h.15l.8,4.54-.14,0c-.61-1.47-1.18-2.27-3.16-2.27H84.27v5.7c0,1.43.6,1.86,2.41,1.86a6.6,6.6,0,0,0,5.76-3.82l.12,0-1.58,5a1.19,1.19,0,0,0-.67-.22H80.82v-.14c.82-.06,1.27-.41,1.27-1.58v-10c0-1.16-.45-1.51-1.27-1.57v-.16h8.81A1.11,1.11,0,0,0,90.56,13.2Z" transform="translate(-1.88 -5.84)"/><path class="cls-1" d="M98.2,13.55v.14c-.68.08-1.28.41-1.28,1.59v9.18c0,1.08.35,1.71,1.73,1.71,1.83,0,3.93-1.14,5.36-3.94l.15,0-1.58,5a1.25,1.25,0,0,0-.8-.29H93.46v-.14c.76-.06,1.28-.39,1.28-1.6v-10c0-1.18-.52-1.53-1.28-1.59v-.14Z" transform="translate(-1.88 -5.84)"/><path class="cls-1" d="M109.32,13.55v.14c-.68.08-1.28.41-1.28,1.59v10c0,1.19.6,1.52,1.28,1.6V27h-4.74v-.14c.76-.08,1.28-.39,1.28-1.6v-10c0-1.18-.52-1.53-1.28-1.59v-.14Z" transform="translate(-1.88 -5.84)"/><path class="cls-1" d="M116.5,13.55v.14c-.75,0-.87.41-.87.61a1.88,1.88,0,0,0,.4,1.07l1.6,2.51,1.55-2.33a2.58,2.58,0,0,0,.53-1.19.59.59,0,0,0-.65-.67H119v-.14h4.21v.14c-.28,0-1.21-.06-2.51,1.88L118.36,19l3.93,6.25c.85,1.35,1.35,1.46,1.83,1.54V27H119v-.14c.7-.06,1.05-.39,1.05-.82a2.27,2.27,0,0,0-.47-1.21l-2.61-4.12-2.43,4a3.28,3.28,0,0,0-.57,1.35.77.77,0,0,0,.77.8V27h-4.53v-.14l.18,0c.77-.13,1.35-.49,2.82-2.72l3-4.6L114,15.9c-.93-1.52-1.68-2.27-2.48-2.21v-.14Z" transform="translate(-1.88 -5.84)"/><path class="cls-1" d="M46.55,37.69,42.88,33l0,.38,0,.65v3.64H42.1V32.21h1.08l3.71,4.7q-.06-.77-.06-1.11V32.21h.84v5.48Z" transform="translate(-1.88 -5.84)"/><path class="cls-1" d="M53,37.77a3.9,3.9,0,0,1-1.47-.25,2.11,2.11,0,0,1-1-.71,1.81,1.81,0,0,1-.35-1.11V32.21h.93v3.42a1.36,1.36,0,0,0,.48,1.14,2.14,2.14,0,0,0,1.38.39,2.25,2.25,0,0,0,1.43-.4,1.39,1.39,0,0,0,.52-1.18V32.21h.92v3.42a1.9,1.9,0,0,1-.35,1.14,2.18,2.18,0,0,1-1,.74A4.13,4.13,0,0,1,53,37.77Z" transform="translate(-1.88 -5.84)"/><path class="cls-1" d="M61.05,32.81v4.88h-.93V32.81H57.77v-.6H63.4v.6Z" transform="translate(-1.88 -5.84)"/><path class="cls-1" d="M70.23,37.69l-1.78-2.28H66.31v2.28h-.92V32.21h3.22a3.23,3.23,0,0,1,1.79.41A1.31,1.31,0,0,1,71,33.77a1.35,1.35,0,0,1-.45,1,2.18,2.18,0,0,1-1.22.53l1.94,2.36Zm-.14-3.91a.81.81,0,0,0-.4-.73,2.21,2.21,0,0,0-1.17-.25H66.31v2h2.25a2,2,0,0,0,1.13-.28A.87.87,0,0,0,70.09,33.78Z" transform="translate(-1.88 -5.84)"/><path class="cls-1" d="M78.38,37.69l-.79-1.6H74.47l-.79,1.6h-1l2.8-5.48h1l2.76,5.48ZM76,32.77l0,.11c-.08.21-.2.49-.36.82l-.88,1.81h2.57l-.88-1.81c-.09-.18-.19-.38-.28-.61Z" transform="translate(-1.88 -5.84)"/><path class="cls-1" d="M84.25,37.69V32.21h.93v4.87h3.47v.61Z" transform="translate(-1.88 -5.84)"/><path class="cls-1" d="M95.59,37.69l-.78-1.6H91.68l-.78,1.6h-1l2.8-5.48h1.06l2.75,5.48Zm-2.34-4.92,0,.11c-.08.21-.2.49-.36.82L92,35.51h2.56l-.88-1.81c-.09-.18-.18-.38-.27-.61Z" transform="translate(-1.88 -5.84)"/><path class="cls-1" d="M103.62,36.14a1.28,1.28,0,0,1-.67,1.14,3.57,3.57,0,0,1-1.85.41H98.31V32.21h2.49c1.61,0,2.42.44,2.42,1.33a1.11,1.11,0,0,1-.34.81,1.79,1.79,0,0,1-1,.45,2.27,2.27,0,0,1,1.26.44A1.11,1.11,0,0,1,103.62,36.14Zm-1.34-2.51a.65.65,0,0,0-.38-.64,2.62,2.62,0,0,0-1.1-.19H99.24v1.74h1.56a2.2,2.2,0,0,0,1.12-.23A.74.74,0,0,0,102.28,33.63Zm.4,2.46c0-.65-.57-1-1.71-1H99.24v2h1.81a2.33,2.33,0,0,0,1.24-.25A.84.84,0,0,0,102.68,36.09Z" transform="translate(-1.88 -5.84)"/><path class="cls-1" d="M111.26,36.18a1.28,1.28,0,0,1-.74,1.17,4.27,4.27,0,0,1-2.09.42c-1.67,0-2.63-.47-2.9-1.4l.9-.14a1.16,1.16,0,0,0,.66.73,3.47,3.47,0,0,0,1.38.23,3.08,3.08,0,0,0,1.39-.25.79.79,0,0,0,.49-.73.63.63,0,0,0-.16-.43,1.19,1.19,0,0,0-.43-.28,3.85,3.85,0,0,0-.66-.18l-.85-.16a8.73,8.73,0,0,1-1.23-.29,2.33,2.33,0,0,1-.67-.32,1.42,1.42,0,0,1-.37-.41,1.09,1.09,0,0,1-.13-.55,1.19,1.19,0,0,1,.67-1.08,3.92,3.92,0,0,1,1.93-.39,4.41,4.41,0,0,1,1.79.29,1.62,1.62,0,0,1,.86,1l-.91.13a1,1,0,0,0-.57-.63,2.92,2.92,0,0,0-1.18-.2,3,3,0,0,0-1.25.22.69.69,0,0,0-.43.65.57.57,0,0,0,.16.42,1.5,1.5,0,0,0,.49.28,8.47,8.47,0,0,0,1.26.28l.63.12a5.26,5.26,0,0,1,.6.15,4.29,4.29,0,0,1,.54.19,1.88,1.88,0,0,1,.43.28,1.33,1.33,0,0,1,.29.38A1.25,1.25,0,0,1,111.26,36.18Z" transform="translate(-1.88 -5.84)"/></svg>